<svg width="26" height="19" viewBox="0 0 26 19" fill="none" xmlns="http://www.w3.org/2000/svg">
<path d="M20.6691 4.70868C20.5121 6.88742 18.8959 8.5658 17.1334 8.5658C15.3709 8.5658 13.752 6.88795 13.5977 4.70868C13.437 2.44209 15.0104 0.851562 17.1334 0.851562C19.2564 0.851562 20.8298 2.48334 20.6691 4.70868Z" stroke="currentColor" stroke-width="1.7" stroke-linecap="round" stroke-linejoin="round"/>
<path d="M17.133 11.9961C13.6417 11.9961 10.2844 13.7302 9.44338 17.1073C9.33195 17.5541 9.61212 17.9961 10.0712 17.9961H24.1952C24.6544 17.9961 24.9329 17.5541 24.8231 17.1073C23.982 13.6761 20.6247 11.9961 17.133 11.9961Z" stroke="currentColor" stroke-width="1.7" stroke-miterlimit="10"/>
<path d="M9.84757 5.67032C9.72222 7.4103 8.41615 8.78065 7.00831 8.78065C5.60046 8.78065 4.29225 7.41084 4.16904 5.67032C4.041 3.86015 5.31225 2.56641 7.00831 2.56641C8.70437 2.56641 9.97561 3.89336 9.84757 5.67032Z" stroke="currentColor" stroke-width="1.7" stroke-linecap="round" stroke-linejoin="round"/>
<path d="M10.1691 12.1017C9.2021 11.6586 8.13711 11.4883 7.00837 11.4883C4.22267 11.4883 1.53876 12.8731 0.866442 15.5704C0.77805 15.9272 1.00198 16.2802 1.3684 16.2802H7.38337" stroke="currentColor" stroke-width="1.7" stroke-miterlimit="10" stroke-linecap="round"/>
</svg>
